<?xml version="1.0" encoding="UTF-8"?>
<svg width="700pt" height="700pt" version="1.1" viewBox="0 0 700 700" xmlns="http://www.w3.org/2000/svg" xmlns:xlink="http://www.w3.org/1999/xlink">
 <defs>
  <symbol id="v" overflow="visible">
   <path d="m18.766-1.125c-0.96875 0.5-1.9805 0.875-3.0312 1.125-1.043 0.25781-2.1367 0.39062-3.2812 0.39062-3.3984 0-6.0898-0.94531-8.0781-2.8438-1.9922-1.9062-2.9844-4.4844-2.9844-7.7344 0-3.2578 0.99219-5.8359 2.9844-7.7344 1.9883-1.9062 4.6797-2.8594 8.0781-2.8594 1.1445 0 2.2383 0.13281 3.2812 0.39062 1.0508 0.25 2.0625 0.625 3.0312 1.125v4.2188c-0.98047-0.65625-1.9453-1.1406-2.8906-1.4531-0.94922-0.3125-1.9492-0.46875-3-0.46875-1.875 0-3.3516 0.60547-4.4219 1.8125-1.0742 1.1992-1.6094 2.8555-1.6094 4.9688 0 2.1055 0.53516 3.7617 1.6094 4.9688 1.0703 1.1992 2.5469 1.7969 4.4219 1.7969 1.0508 0 2.0508-0.14844 3-0.45312 0.94531-0.3125 1.9102-0.80078 2.8906-1.4688z"/>
  </symbol>
  <symbol id="c" overflow="visible">
   <path d="m13.734-11.141c-0.4375-0.19531-0.87109-0.34375-1.2969-0.4375-0.41797-0.10156-0.83984-0.15625-1.2656-0.15625-1.2617 0-2.2305 0.40625-2.9062 1.2188-0.67969 0.80469-1.0156 1.9531-1.0156 3.4531v7.0625h-4.8906v-15.312h4.8906v2.5156c0.625-1 1.3438-1.7266 2.1562-2.1875 0.82031-0.46875 1.8008-0.70312 2.9375-0.70312 0.16406 0 0.34375 0.011719 0.53125 0.03125 0.19531 0.011719 0.47656 0.039062 0.84375 0.078125z"/>
  </symbol>
  <symbol id="a" overflow="visible">
   <path d="m17.641-7.7031v1.4062h-11.453c0.125 1.1484 0.53906 2.0078 1.25 2.5781 0.70703 0.57422 1.7031 0.85938 2.9844 0.85938 1.0312 0 2.082-0.14844 3.1562-0.45312 1.082-0.3125 2.1914-0.77344 3.3281-1.3906v3.7656c-1.1562 0.4375-2.3125 0.76562-3.4688 0.98438-1.1562 0.22656-2.3125 0.34375-3.4688 0.34375-2.7734 0-4.9297-0.70312-6.4688-2.1094-1.5312-1.4062-2.2969-3.3789-2.2969-5.9219 0-2.5 0.75391-4.4609 2.2656-5.8906 1.5078-1.4375 3.582-2.1562 6.2188-2.1562 2.4062 0 4.332 0.73047 5.7812 2.1875 1.4453 1.4492 2.1719 3.3828 2.1719 5.7969zm-5.0312-1.625c0-0.92578-0.27344-1.6719-0.8125-2.2344-0.54297-0.57031-1.25-0.85938-2.125-0.85938-0.94922 0-1.7188 0.26562-2.3125 0.79688s-0.96484 1.2969-1.1094 2.2969z"/>
  </symbol>
  <symbol id="f" overflow="visible">
   <path d="m9.2188-6.8906c-1.0234 0-1.793 0.17188-2.3125 0.51562-0.51172 0.34375-0.76562 0.85547-0.76562 1.5312 0 0.625 0.20703 1.1172 0.625 1.4688 0.41406 0.34375 0.98828 0.51562 1.7188 0.51562 0.92578 0 1.7031-0.32812 2.3281-0.98438 0.63281-0.66406 0.95312-1.4922 0.95312-2.4844v-0.5625zm7.4688-1.8438v8.7344h-4.9219v-2.2656c-0.65625 0.92969-1.3984 1.6055-2.2188 2.0312-0.82422 0.41406-1.8242 0.625-3 0.625-1.5859 0-2.8711-0.45703-3.8594-1.375-0.99219-0.92578-1.4844-2.1289-1.4844-3.6094 0-1.7891 0.61328-3.1016 1.8438-3.9375 1.2383-0.84375 3.1797-1.2656 5.8281-1.2656h2.8906v-0.39062c0-0.76953-0.30859-1.332-0.92188-1.6875-0.61719-0.36328-1.5703-0.54688-2.8594-0.54688-1.0547 0-2.0312 0.10547-2.9375 0.3125-0.89844 0.21094-1.7305 0.52344-2.5 0.9375v-3.7344c1.0391-0.25 2.0859-0.44141 3.1406-0.57812 1.0625-0.13281 2.125-0.20312 3.1875-0.20312 2.7578 0 4.75 0.54688 5.9688 1.6406 1.2266 1.0859 1.8438 2.8555 1.8438 5.3125z"/>
  </symbol>
  <symbol id="b" overflow="visible">
   <path d="m7.7031-19.656v4.3438h5.0469v3.5h-5.0469v6.5c0 0.71094 0.14062 1.1875 0.42188 1.4375s0.83594 0.375 1.6719 0.375h2.5156v3.5h-4.1875c-1.9375 0-3.3125-0.39844-4.125-1.2031-0.80469-0.8125-1.2031-2.1797-1.2031-4.1094v-6.5h-2.4219v-3.5h2.4219v-4.3438z"/>
  </symbol>
  <symbol id="j" overflow="visible">
   <path d="m12.766-13.078v-8.2031h4.9219v21.281h-4.9219v-2.2188c-0.66797 0.90625-1.4062 1.5703-2.2188 1.9844s-1.7578 0.625-2.8281 0.625c-1.8867 0-3.4336-0.75-4.6406-2.25-1.2109-1.5-1.8125-3.4258-1.8125-5.7812 0-2.3633 0.60156-4.2969 1.8125-5.7969 1.207-1.5 2.7539-2.25 4.6406-2.25 1.0625 0 2 0.21484 2.8125 0.64062 0.82031 0.42969 1.5664 1.0859 2.2344 1.9688zm-3.2188 9.9219c1.0391 0 1.8359-0.37891 2.3906-1.1406 0.55078-0.76953 0.82812-1.8828 0.82812-3.3438 0-1.457-0.27734-2.5664-0.82812-3.3281-0.55469-0.76953-1.3516-1.1562-2.3906-1.1562-1.043 0-1.8398 0.38672-2.3906 1.1562-0.55469 0.76172-0.82812 1.8711-0.82812 3.3281 0 1.4609 0.27344 2.5742 0.82812 3.3438 0.55078 0.76172 1.3477 1.1406 2.3906 1.1406z"/>
  </symbol>
  <symbol id="e" overflow="visible">
   <path d="m10.5-3.1562c1.0508 0 1.8516-0.37891 2.4062-1.1406 0.55078-0.76953 0.82812-1.8828 0.82812-3.3438 0-1.457-0.27734-2.5664-0.82812-3.3281-0.55469-0.76953-1.3555-1.1562-2.4062-1.1562-1.0547 0-1.8594 0.38672-2.4219 1.1562-0.55469 0.77344-0.82812 1.8828-0.82812 3.3281 0 1.4492 0.27344 2.5586 0.82812 3.3281 0.5625 0.77344 1.3672 1.1562 2.4219 1.1562zm-3.25-9.9219c0.67578-0.88281 1.4219-1.5391 2.2344-1.9688 0.82031-0.42578 1.7656-0.64062 2.8281-0.64062 1.8945 0 3.4453 0.75 4.6562 2.25 1.207 1.5 1.8125 3.4336 1.8125 5.7969 0 2.3555-0.60547 4.2812-1.8125 5.7812-1.2109 1.5-2.7617 2.25-4.6562 2.25-1.0625 0-2.0078-0.21094-2.8281-0.625-0.8125-0.42578-1.5586-1.0859-2.2344-1.9844v2.2188h-4.8906v-21.281h4.8906z"/>
  </symbol>
  <symbol id="i" overflow="visible">
   <path d="m0.34375-15.312h4.8906l4.125 10.391 3.5-10.391h4.8906l-6.4375 16.766c-0.64844 1.6953-1.4023 2.8828-2.2656 3.5625-0.86719 0.6875-2 1.0312-3.4062 1.0312h-2.8438v-3.2188h1.5312c0.83203 0 1.4375-0.13672 1.8125-0.40625 0.38281-0.26172 0.67969-0.73047 0.89062-1.4062l0.14062-0.42188z"/>
  </symbol>
  <symbol id="h" overflow="visible">
   <path d="m2.5781-20.406h14.203v3.9688h-8.9531v3.7969h8.4219v3.9844h-8.4219v4.6719h9.25v3.9844h-14.5z"/>
  </symbol>
  <symbol id="u" overflow="visible">
   <path d="m2.3594-21.281h4.8906v21.281h-4.8906z"/>
  </symbol>
  <symbol id="t" overflow="visible">
   <path d="m2.3594-15.312h4.8906v15.312h-4.8906zm0-5.9688h4.8906v4h-4.8906z"/>
  </symbol>
  <symbol id="s" overflow="visible">
   <path d="m1.5938-15.312h13.359v3.4219l-8.0625 8.3906h8.0625v3.5h-13.688v-3.4219l8.0625-8.3906h-7.7344z"/>
  </symbol>
  <symbol id="g" overflow="visible">
   <path d="m17.75-9.3281v9.3281h-4.9219v-7.1094c0-1.3438-0.03125-2.2656-0.09375-2.7656s-0.16797-0.86719-0.3125-1.1094c-0.1875-0.3125-0.44922-0.55469-0.78125-0.73438-0.32422-0.17578-0.69531-0.26562-1.1094-0.26562-1.0234 0-1.8242 0.39844-2.4062 1.1875-0.58594 0.78125-0.875 1.8711-0.875 3.2656v7.5312h-4.8906v-21.281h4.8906v8.2031c0.73828-0.88281 1.5195-1.5391 2.3438-1.9688 0.83203-0.42578 1.75-0.64062 2.75-0.64062 1.7695 0 3.1133 0.54688 4.0312 1.6406 0.91406 1.0859 1.375 2.6562 1.375 4.7188z"/>
  </symbol>
  <symbol id="r" overflow="visible">
   <path d="m12.422-21.281v3.2188h-2.7031c-0.6875 0-1.1719 0.125-1.4531 0.375-0.27344 0.25-0.40625 0.6875-0.40625 1.3125v1.0625h4.1875v3.5h-4.1875v11.812h-4.8906v-11.812h-2.4375v-3.5h2.4375v-1.0625c0-1.6641 0.46094-2.8984 1.3906-3.7031 0.92578-0.80078 2.3672-1.2031 4.3281-1.2031z"/>
  </symbol>
  <symbol id="d" overflow="visible">
   <path d="m9.6406-12.188c-1.0859 0-1.9141 0.39062-2.4844 1.1719-0.57422 0.78125-0.85938 1.9062-0.85938 3.375s0.28516 2.5938 0.85938 3.375c0.57031 0.77344 1.3984 1.1562 2.4844 1.1562 1.0625 0 1.875-0.38281 2.4375-1.1562 0.57031-0.78125 0.85938-1.9062 0.85938-3.375s-0.28906-2.5938-0.85938-3.375c-0.5625-0.78125-1.375-1.1719-2.4375-1.1719zm0-3.5c2.6328 0 4.6914 0.71484 6.1719 2.1406 1.4766 1.418 2.2188 3.3867 2.2188 5.9062 0 2.5117-0.74219 4.4805-2.2188 5.9062-1.4805 1.418-3.5391 2.125-6.1719 2.125-2.6484 0-4.7148-0.70703-6.2031-2.125-1.4922-1.4258-2.2344-3.3945-2.2344-5.9062 0-2.5195 0.74219-4.4883 2.2344-5.9062 1.4883-1.4258 3.5547-2.1406 6.2031-2.1406z"/>
  </symbol>
  <symbol id="q" overflow="visible">
   <path d="m16.547-12.766c0.61328-0.94531 1.3477-1.6719 2.2031-2.1719 0.85156-0.5 1.7891-0.75 2.8125-0.75 1.7578 0 3.0977 0.54688 4.0156 1.6406 0.92578 1.0859 1.3906 2.6562 1.3906 4.7188v9.3281h-4.9219v-7.9844-0.35938c0.007813-0.13281 0.015625-0.32031 0.015625-0.5625 0-1.082-0.16406-1.8633-0.48438-2.3438-0.3125-0.48828-0.82422-0.73438-1.5312-0.73438-0.92969 0-1.6484 0.38672-2.1562 1.1562-0.51172 0.76172-0.77344 1.8672-0.78125 3.3125v7.5156h-4.9219v-7.9844c0-1.6953-0.14844-2.7852-0.4375-3.2656-0.29297-0.48828-0.8125-0.73438-1.5625-0.73438-0.9375 0-1.6641 0.38672-2.1719 1.1562-0.51172 0.76172-0.76562 1.8594-0.76562 3.2969v7.5312h-4.9219v-15.312h4.9219v2.2344c0.60156-0.86328 1.2891-1.5156 2.0625-1.9531 0.78125-0.4375 1.6406-0.65625 2.5781-0.65625 1.0625 0 2 0.25781 2.8125 0.76562 0.8125 0.51172 1.4258 1.2305 1.8438 2.1562z"/>
  </symbol>
  <symbol id="p" overflow="visible">
   <path d="m2.5781-20.406h5.875l7.4219 14v-14h4.9844v20.406h-5.875l-7.4219-14v14h-4.9844z"/>
  </symbol>
  <symbol id="o" overflow="visible">
   <path d="m2.1875-5.9688v-9.3438h4.9219v1.5312c0 0.83594-0.007813 1.875-0.015625 3.125-0.011719 1.25-0.015625 2.0859-0.015625 2.5 0 1.2422 0.03125 2.1328 0.09375 2.6719 0.070313 0.54297 0.17969 0.93359 0.32812 1.1719 0.20703 0.32422 0.47266 0.57422 0.79688 0.75 0.32031 0.16797 0.69141 0.25 1.1094 0.25 1.0195 0 1.8203-0.39062 2.4062-1.1719 0.58203-0.78125 0.875-1.8672 0.875-3.2656v-7.5625h4.8906v15.312h-4.8906v-2.2188c-0.74219 0.89844-1.5234 1.5586-2.3438 1.9844-0.82422 0.41406-1.7344 0.625-2.7344 0.625-1.7617 0-3.1055-0.53906-4.0312-1.625-0.92969-1.082-1.3906-2.6602-1.3906-4.7344z"/>
  </symbol>
  <symbol id="n" overflow="visible">
   <path d="m17.75-9.3281v9.3281h-4.9219v-7.1406c0-1.3203-0.03125-2.2344-0.09375-2.7344s-0.16797-0.86719-0.3125-1.1094c-0.1875-0.3125-0.44922-0.55469-0.78125-0.73438-0.32422-0.17578-0.69531-0.26562-1.1094-0.26562-1.0234 0-1.8242 0.39844-2.4062 1.1875-0.58594 0.78125-0.875 1.8711-0.875 3.2656v7.5312h-4.8906v-15.312h4.8906v2.2344c0.73828-0.88281 1.5195-1.5391 2.3438-1.9688 0.83203-0.42578 1.75-0.64062 2.75-0.64062 1.7695 0 3.1133 0.54688 4.0312 1.6406 0.91406 1.0859 1.375 2.6562 1.375 4.7188z"/>
  </symbol>
  <symbol id="m" overflow="visible">
   <path d="m2.5781-20.406h8.7344c2.5938 0 4.582 0.57812 5.9688 1.7344 1.3945 1.1484 2.0938 2.7891 2.0938 4.9219 0 2.1367-0.69922 3.7812-2.0938 4.9375-1.3867 1.1562-3.375 1.7344-5.9688 1.7344h-3.4844v7.0781h-5.25zm5.25 3.8125v5.7031h2.9219c1.0195 0 1.8047-0.25 2.3594-0.75 0.5625-0.5 0.84375-1.2031 0.84375-2.1094 0-0.91406-0.28125-1.6172-0.84375-2.1094-0.55469-0.48828-1.3398-0.73438-2.3594-0.73438z"/>
  </symbol>
  <symbol id="l" overflow="visible">
   <path d="m2.3594-15.312h4.8906v15.031c0 2.0508-0.49609 3.6172-1.4844 4.7031-0.98047 1.082-2.4062 1.625-4.2812 1.625h-2.4219v-3.2188h0.85938c0.92578 0 1.5625-0.21094 1.9062-0.625 0.35156-0.41797 0.53125-1.2461 0.53125-2.4844zm0-5.9688h4.8906v4h-4.8906z"/>
  </symbol>
  <symbol id="k" overflow="visible">
   <path d="m14.719-14.828v3.9844c-0.65625-0.45703-1.3242-0.79688-2-1.0156-0.66797-0.21875-1.3594-0.32812-2.0781-0.32812-1.3672 0-2.4336 0.40234-3.2031 1.2031-0.76172 0.79297-1.1406 1.9062-1.1406 3.3438 0 1.4297 0.37891 2.543 1.1406 3.3438 0.76953 0.79297 1.8359 1.1875 3.2031 1.1875 0.75781 0 1.4844-0.10938 2.1719-0.32812 0.6875-0.22656 1.3203-0.56641 1.9062-1.0156v4c-0.76172 0.28125-1.5391 0.48828-2.3281 0.625-0.78125 0.14453-1.5742 0.21875-2.375 0.21875-2.7617 0-4.9219-0.70703-6.4844-2.125-1.5547-1.4141-2.3281-3.3828-2.3281-5.9062 0-2.5312 0.77344-4.5039 2.3281-5.9219 1.5625-1.4141 3.7227-2.125 6.4844-2.125 0.80078 0 1.5938 0.074219 2.375 0.21875 0.78125 0.13672 1.5547 0.35156 2.3281 0.64062z"/>
  </symbol>
 </defs>
 <g>
  <path d="m495.59 361.54c1.9922 17.938 13.949 32.289 13.949 32.289 18.328 9.168 0 19.531 0 19.531s-0.79687 22.73 0 25.109c-8.3711 16.742-59.797 41.07-81.324 49.438-21.527 8.3789-96.57 11.465-96.57 11.465-103.66 0.80078-133.45-50.926-136.64-59.305-3.1875-8.3672 8.3711-35.48 8.3711-35.48-5.1875 1.1914-17.141-3.9805-27.105-11.156-9.9688-7.1719 6.7695-15.16 12.355-15.539 3.9883-2.7891 10.762-11.977 10.762-11.977s0.21875-0.29688 0.33203-0.4375c-12.988-3.3047-91.012-26.906-76.473-116.07 17.336-71.461 119.59-187.27 237.6-188.46 24.32-0.55469 89.195-10.062 190.96 127.59 28.102 44.242 61.984 170.6-56.215 173zm-10.566-12.574c-2.6992-12.68-2.0938-20.922-6.5781-25.406-50.23-44.852-119-41.562-178.2-41.867-59.199-0.29687-74.148 26.02-74.148 26.02s1.1992 57.812-3.1914 68.957c-1.1914 2.7891-14.746 28.711-17.535 33.488-2.7891 4.7773-4.3867 14.758-4.0547 25.52 0.33594 10.762 38.535 56.516 127.93 57.41 105.29 1.0547 149.5-33.312 167.74-52.754 5.375-5.7188 2.3906-27.379 2.3906-27.379-14.93 3.293-35.578-6.8828-43.652-15.07-8.0703-8.1797-6.2773-15.137-2.6875-11.246 10.164 12.852 37.379 22.125 43.348 20.922 18.543-1.793 10.164-7.7656 7.1719-9.6836-9.2695-1.0078-18.832-17.227-23.016-24.457-4.1836-7.2305-1.793-16.387 0.29688-14 3.2969 16.145 16.445 23.918 15.254 22.73-1.2031-1.1797-8.3711-20.492-11.07-33.184zm-317.93-41.254c4.3867-22.527 66.578-36.668 84.719-39.664 18.133-2.9922 31.09-3.3945 28.902-4.5859-41.895-0.72266-72.953 7.582-103.45 26.117-30.496 18.543-5.7773 39.07-5.7773 39.07-0.003907 0-5.3867-12.57-4.3945-20.938zm35.086-23.516s9.7266 16.133 20.133 13.344c1.9883-1.1914-14.555-5.9688-15.348-13.344-0.003906 0-4.1914-3.6328-4.7852 0zm-13.457 53.109c12.555 2.5469 19.887-4.1875 22.574-7.6211 3.1406-8.5195 1.4961-10.914-2.0938-4.7812-3.5898 6.125-21.676 9.5703-21.676 9.5703-0.003906 0-11.367 0.29688 1.1953 2.832zm118.4-134.23c27.805-10.465 30.199-40.965-3.2891-48.738-33.488-7.7734-52.625 21.527-52.625 21.527-12.859 26.605 28.105 37.672 55.914 27.211zm-99.566 187.75c8.0703-17.031 14.051-28.391 13.156-41.859 0 0-13.453 29.598-32.586 34.094 0 0-6.5781 1.4883-6.2773 5.6797-0.003906 0 17.637 19.141 25.707 2.0859zm365.01-117.18c-0.78516 0.21875-25.512 6.7188-35.223-39.188-9.6133-45.445 1.7812-47.102 2.375-47.152-16.648-24.594-33.281-44.145-49.363-59.664 3.0859 39.492-29.484 71.605-91.234 25.375-42.688-45.793-7.8555-73.41 13.816-75.863-31.84-11.52-52.887-8.2305-52.887-8.2305-11.805-0.23438-23.199 0.77734-34.148 2.6953 0.10547 0.32031 7.9844 24.98-30.828 51.262-61.141 35.086-75.68 0.30078-75.797 0.011719-19.516 15.809-30.648 28.941-30.648 28.941s-25.105 26.617-42.844 60.473c0.066407-0.027344 48.195-18.43 66.551 18.559 9.582 27.805-56.293 70.262-79.109 64.883 24.246 59.215 72.566 60.387 72.852 60.395 4.6758-7.3398 10.305-17.398 11.66-25.418 2.3906-14.207 2.0938-24.82 2.6953-27.805 29.602-21.828 57.262-25.418 57.262-25.418-2.8438-5.0859-2.8438-6.2773-1.3477-6.875 1.4961-0.59375 5.9805 5.9805 5.9805 5.9805 45.039-6.7812 115.62 5.1797 115.62 5.1797-11.961-6.3711-72.566-14.352-83.324-15.148-10.762-0.80078-15.949-3.1914-15.949-3.1914 26.66 0.20312 50.055 2.3242 70.656 5.707-0.95312-10.406-0.64844-42.707 38.871-48.457 47.246-6.875 89.719 25.414 99.875 50.527 10.152 25.109 10.523 54.68-13.727 53.801-0.003906-0.011719-0.015624-0.011719-0.023437-0.011719 7.2734 7.4922 10.641 13.07 11.25 14.59 2.3984 5.9688-2.3906 7.9648-5.1797 5.9688-1.1992-11.957-6.7773-12.762-7.9805-12.359-1.0195 0.35156 0.55469 7.6211 2.2773 20.746-0.015624 0.019531 83.293-1.6758 77.875-80.312zm-294.35 73.41c-21.934-3.9648-28.234 15.164-28.234 15.164 0.44141 19.258 4.4336 24.035 25.199 24.5s19.836-13.766 20.301-15.863 4.6641-19.836-17.266-23.801zm8.0469 24.273c-0.81641 8.3984-7.9336 9.918-19.254 7.9297-11.316-1.9883-10.152-17.152-10.152-17.152 0.81641-1.3984 2.0547 0 2.0547 0s0.27344 6.3008 5.6328 11.781c4.4414 3.7344 6.3125 0.46484 6.3125 0.46484-7.4648-2.2188-8.5195-10.152-8.7539-14.352-0.23438-4.1992 5.8359-3.9648 14.699-3.5 8.8672 0.46094 10.281 6.4258 9.4609 14.828zm24.734-9.5703c-2.7734 2.7383-6.9102 8.875-7.8164 10.617-0.90625 1.7422-0.44141 5.1367 3.2656 1.8633 3.707-3.2695 6.793-7.4922 8.0547-9.8008 1.2578-2.3047-0.73438-5.4258-3.5039-2.6797zm10.43 1.3945c-2.7734 2.7383-6.9102 8.875-7.8164 10.617-0.90625 1.7422-0.44141 5.1367 3.2656 1.8633 3.707-3.2695 6.793-7.4922 8.0547-9.8008 1.2539-2.3047-0.73438-5.4258-3.5039-2.6797zm13.676-0.48438c-2.7734 2.7383-6.9102 8.875-7.8164 10.617-0.90625 1.7422-0.44141 5.1367 3.2656 1.8633 3.707-3.2695 6.793-7.4922 8.0547-9.8008 1.2539-2.3047-0.73438-5.4219-3.5039-2.6797zm11.062-0.55859c-2.0273 2.8438-4.7539 8.8945-5.293 10.574-0.53906 1.6875 0.37891 4.6133 3.1523 1.1719 2.7656-3.4492 4.8594-7.6445 5.6172-9.8789 0.76562-2.2383-1.4492-4.7031-3.4766-1.8672zm11.312 0.27344c-2.3633 3.1016-5.6016 9.7539-6.2539 11.609-0.65625 1.8555 0.28516 5.1445 3.4961 1.3906 3.207-3.7578 5.6797-8.3672 6.5977-10.832 0.91406-2.4648-1.4805-5.2695-3.8398-2.168zm57.938 6.6758c-1.6367-12.789-7.3516-22.152-20.301-22.547-12.945-0.39062-7.582 4.7383-15.871 5.6719-8.2812 0.93359-7.582 5.3711-7.582 5.3711s-2.8008 21.582 16.102 27.184c0 0-6.8828 19.02 8.7539 22.055 11.555 1.3984 12.254-13.184 7-21.465 0-0.007812 13.535-3.4805 11.898-16.27zm-36.629-6.0273c-0.94141 0.35156-5.2539-2.5586-2.918-5.4805 2.3359-2.9219 4.0273-1.1484 3.9688 0-0.003906 0.003906-0.12109 5.1367-1.0508 5.4805zm12.215 33.602 0.027344-4.4297s-0.69531-6.8828 4.6719-6.5352c5.3633 0.34766 6.9961 5.6055 6.8828 8.6367-0.11328 3.0273-5.8945 17.027-11.582 2.3281zm3.3555-17.148c-5.7734-0.23047-14.52-5.8281-11.84-19.363 0 0-0.11719-4 4.8984-4.1562 5.0195-0.15625 18.781-2.1445 18.781 9.7539 0.003906 11.902-6.0664 13.996-11.84 13.766zm-71.457 13.773c17.383 0.16797 24.617 0.11719 29.164 0.46875 4.5469 0.35156 8.5195 2.8008 8.3984 0.58203-0.81641-7.2344-19.137-5.0195-33.57-5.2539-14.438-0.23438-14.125 5.2539-14.125 5.2539-0.21094 2.4492 3.7148-1.1719 10.133-1.0508z"/>
  <use x="70" y="644" xlink:href="#v"/>
  <use x="90.550781" y="644" xlink:href="#c"/>
  <use x="104.359375" y="644" xlink:href="#a"/>
  <use x="123.347656" y="644" xlink:href="#f"/>
  <use x="142.242188" y="644" xlink:href="#b"/>
  <use x="155.628906" y="644" xlink:href="#a"/>
  <use x="174.617188" y="644" xlink:href="#j"/>
  <use x="204.410156" y="644" xlink:href="#e"/>
  <use x="224.453125" y="644" xlink:href="#i"/>
  <use x="252.453125" y="644" xlink:href="#h"/>
  <use x="271.578125" y="644" xlink:href="#u"/>
  <use x="281.175781" y="644" xlink:href="#t"/>
  <use x="290.773438" y="644" xlink:href="#s"/>
  <use x="307.070312" y="644" xlink:href="#f"/>
  <use x="325.964844" y="644" xlink:href="#e"/>
  <use x="346.007812" y="644" xlink:href="#a"/>
  <use x="365" y="644" xlink:href="#b"/>
  <use x="378.382812" y="644" xlink:href="#g"/>
  <use x="70" y="672" xlink:href="#r"/>
  <use x="82.183594" y="672" xlink:href="#c"/>
  <use x="95.992188" y="672" xlink:href="#d"/>
  <use x="115.226562" y="672" xlink:href="#q"/>
  <use x="154.152344" y="672" xlink:href="#b"/>
  <use x="167.535156" y="672" xlink:href="#g"/>
  <use x="187.46875" y="672" xlink:href="#a"/>
  <use x="216.207031" y="672" xlink:href="#p"/>
  <use x="239.640625" y="672" xlink:href="#d"/>
  <use x="258.878906" y="672" xlink:href="#o"/>
  <use x="278.8125" y="672" xlink:href="#n"/>
  <use x="308.492188" y="672" xlink:href="#m"/>
  <use x="329.015625" y="672" xlink:href="#c"/>
  <use x="342.820312" y="672" xlink:href="#d"/>
  <use x="362.058594" y="672" xlink:href="#l"/>
  <use x="371.65625" y="672" xlink:href="#a"/>
  <use x="390.648438" y="672" xlink:href="#k"/>
  <use x="407.242188" y="672" xlink:href="#b"/>
 </g>
</svg>
